<svg xmlns="http://www.w3.org/2000/svg" xmlns:svg="http://www.w3.org/2000/svg" id="svg2" width="200" height="369.026" version="1.1"><metadata id="metadata7"/><g id="layer1" transform="translate(-54.28571,-335.71932)"><path style="opacity:.52424239;fill:#fc0000;fill-opacity:1;stroke:none;display:inline" id="path2992-9-5" d="m 191.55063,438.91472 c -0.3625,2.35132 -0.62211,10.687 0.0856,13.02164 3.8465,9.09699 3.62452,11.21449 7.14787,12.86388 6.10219,2.85662 4.81236,1.08698 6.92525,0.15576 2.05497,-0.9057 4.7139,-2.75842 4.43256,-5.07359 -0.87122,-7.16941 1.00012,-14.25906 -1.07998,-20.8601 -16.47188,-16.75749 -16.00743,-10.16063 -17.51127,-0.10759 z"/><path style="opacity:.52424239;fill:#fc0000;fill-opacity:1;stroke:none;display:inline" id="path2992-9-5-1" d="m 116.92894,439.13084 c 0.3625,2.35132 0.62211,10.687 -0.0856,13.02164 -3.8465,9.09699 -3.62452,11.21449 -7.14787,12.86388 -6.10219,2.85662 -4.81236,1.08698 -6.92525,0.15576 -2.05497,-0.9057 -4.713898,-2.75842 -4.432558,-5.07359 0.87122,-7.16941 -1.00012,-14.25906 1.07998,-20.8601 16.471878,-16.75749 16.007428,-10.16063 17.511268,-0.10759 z"/></g></svg>