<svg xmlns="http://www.w3.org/2000/svg" xmlns:svg="http://www.w3.org/2000/svg" id="svg2" width="200" height="369.03" version="1.1"><metadata id="metadata7"/><g id="layer1" transform="translate(-54.28571,-335.71492)"><path style="opacity:.52424239;fill:#fc0000;fill-opacity:1;stroke:none;display:inline" id="path2992-9-5" d="m 133.87398,415.10147 c 3.8465,9.09699 4.87096,25.50048 14.82644,36.25673 -0.0143,-4.0028 1.59476,-25.62206 1.53638,-26.52497 -0.87122,-7.16941 0.64298,-37.65192 -1.43712,-44.25296 -2.73371,-2.7811 -1.12578,-1.74427 -2.21898,-0.14255 -6.90139,10.11167 -15.08205,15.48176 -25.82801,19.49925 6.10446,3.54937 10.82182,8.1217 13.12129,15.1645 z"/><path style="opacity:.52424239;fill:#fc0000;fill-opacity:1;stroke:none;display:inline" id="path2992-9-5-7" d="m 176.08582,415.27863 c -3.8465,9.09699 -4.87096,25.50048 -14.82644,36.25673 0.0143,-4.0028 -1.59476,-25.62206 -1.53638,-26.52497 0.87122,-7.16941 -0.64298,-37.65192 1.43712,-44.25296 2.73371,-2.7811 1.12578,-1.74427 2.21898,-0.14255 6.90139,10.11167 15.08205,15.48176 25.82801,19.49925 -6.10446,3.54937 -10.82182,8.1217 -13.12129,15.1645 z"/></g></svg>