<svg xmlns="http://www.w3.org/2000/svg" xmlns:svg="http://www.w3.org/2000/svg" id="svg2" width="200" height="369" version="1.1"><metadata id="metadata7"/><g id="layer1" transform="translate(-395.71431,-316.50506)"><path id="path2992" d="m 463.34788,436.83405 c -1.66702,1.72091 1.94058,-0.85823 2.08236,15.56356 0.14179,16.4218 -1.53044,1.46344 1.87157,19.37308 1.28332,6.75597 14.52159,23.09571 15.99317,20.71734 1.47158,-2.37837 -3.45627,-13.04831 -4.13155,-19.73537 -0.75251,-7.45179 0.296,-14.98129 0.1142,-22.46877 -0.15118,-6.22636 0.20419,-15.19429 -1.00165,-18.65773 -1.58244,-4.54509 -14.72596,4.91419 -14.9281,5.20789 z" style="opacity:.52424239;fill:#fc0000;fill-opacity:1;stroke:none"/><path id="path2992-3" d="m 526.31803,436.83405 c 1.66702,1.72091 -1.94058,-0.85823 -2.08236,15.56356 -0.14179,16.4218 1.53044,1.46344 -1.87157,19.37308 -1.28332,6.75597 -14.52159,23.09571 -15.99317,20.71734 -1.47158,-2.37837 3.45627,-13.04831 4.13155,-19.73537 0.75251,-7.45179 -0.296,-14.98129 -0.1142,-22.46877 0.15118,-6.22636 -0.20419,-15.19429 1.00165,-18.65773 1.58244,-4.54509 14.72596,4.91419 14.9281,5.20789 z" style="opacity:.52424239;fill:#fc0000;fill-opacity:1;stroke:none"/></g></svg>