<svg xmlns="http://www.w3.org/2000/svg" xmlns:svg="http://www.w3.org/2000/svg" id="svg2" width="200" height="369.03" version="1.1"><metadata id="metadata7"/><g id="layer1" transform="translate(-54.28571,-335.71492)"><path id="path2992" d="m 118.2971,433.23148 c -1.66702,1.72091 -0.41996,16.06091 0.11282,25.35434 0.45305,7.90281 5.37207,13.58301 8.39241,16.86555 2.6401,2.86931 4.24182,4.87141 5.96556,7.99774 6.27792,-6.98998 11.67715,-13.36645 14.51699,-25.40762 1.45421,-8.08311 -1.34647,-9.50395 -9.16844,-22.86925 -6.82053,0.62685 -8.3821,1.67193 -13.12348,0.48133 -4.66777,-1.17211 -3.96834,-2.71579 -6.69586,-2.42209 z" style="opacity:.52424239;fill:#fc0000;fill-opacity:1;stroke:none"/><path id="path2992-7" d="m 190.2688,433.68217 c 1.66702,1.72091 0.41996,16.06091 -0.11282,25.35434 -0.45305,7.90281 -5.37207,13.58301 -8.39241,16.86555 -2.6401,2.86931 -4.24182,4.87141 -5.96556,7.99774 -6.27792,-6.98998 -11.67715,-13.36645 -14.51699,-25.40762 -1.45421,-8.08311 1.34647,-9.50395 9.16844,-22.86925 6.82053,0.62685 8.3821,1.67193 13.12348,0.48133 4.66777,-1.17211 3.96834,-2.71579 6.69586,-2.42209 z" style="opacity:.52424239;fill:#fc0000;fill-opacity:1;stroke:none"/></g></svg>