<svg xmlns="http://www.w3.org/2000/svg" xmlns:svg="http://www.w3.org/2000/svg" id="svg2" width="200" height="369.03" version="1.1"><metadata id="metadata7"/><g id="layer1" transform="translate(-54.28571,-335.71492)"><path style="opacity:.52424239;fill:#fc0000;fill-opacity:1;stroke:none;display:inline" id="path2992-9-5" d="m 157.84649,628.07391 c 0.18417,4.50671 0.628,11.65178 1.91202,17.31467 0.83063,3.6633 2.37474,5.09284 3.71512,10.63888 2.14383,8.8704 -0.81431,29.19307 0.0245,29.59121 1.58892,0.91978 1.82319,-0.28511 2.39951,-0.91864 4.22119,-4.64016 2.74914,-12.29168 5.04025,-18.13123 2.62168,-6.6821 4.96173,-6.44129 9.87964,-19.13389 0.41377,-4.25735 2.33285,-10.64845 2.50529,-16.06563 0.14015,-4.40301 -0.21634,-10.77342 -1.20169,-13.16097 -0.0822,-3.20813 -7.17121,-16.98878 -9.34382,-18.55787 -2.55028,-0.64249 -5.10933,-3.66092 -6.58544,-1.63796 -3.4339,1.48689 -3.36742,1.68575 -4.67162,4.03725 -2.30927,4.16367 -0.88234,14.44818 -3.67374,26.02418 z"/><path style="opacity:.52424239;fill:#fc0000;fill-opacity:1;stroke:none;display:inline" id="path2992-9-5-1" d="m 151.38626,628.55089 c -0.18417,4.50671 -0.628,11.65178 -1.91202,17.31467 -0.83063,3.6633 -2.37474,5.09284 -3.71512,10.63888 -2.14383,8.8704 0.81431,29.19307 -0.0245,29.59121 -1.58892,0.91978 -1.82319,-0.28511 -2.39951,-0.91864 -4.22119,-4.64016 -2.74914,-12.29168 -5.04025,-18.13123 -2.62168,-6.6821 -4.96173,-6.44129 -9.87964,-19.13389 -0.41377,-4.25735 -2.33285,-10.64845 -2.50529,-16.06563 -0.14015,-4.40301 0.21634,-10.77342 1.20169,-13.16097 0.0822,-3.20813 7.17121,-16.98878 9.34382,-18.55787 2.55028,-0.64249 5.10933,-3.66092 6.58544,-1.63796 3.4339,1.48689 3.36742,1.68575 4.67162,4.03725 2.30927,4.16367 0.88234,14.44818 3.67374,26.02418 z"/></g></svg>