<svg xmlns="http://www.w3.org/2000/svg" xmlns:svg="http://www.w3.org/2000/svg" id="svg2" width="200" height="362" version="1.1"><metadata id="metadata7"/><g id="layer1" transform="translate(-395.71431,-323.50506)"><path id="path2992" d="m 518.74726,391.26389 c -1.66702,1.72091 4.14667,4.86002 6.04747,7.42414 2.14217,2.88973 3.84239,6.09351 6.02422,8.9534 3.14045,4.11642 7.90919,10.8631 10.13838,11.76773 2.22918,0.90463 2.61397,1.68695 2.10576,-0.80988 -0.0486,-4.08929 0.46888,-10.39718 -0.3296,-15.79817 -0.85269,-5.60328 -4.22913,-9.95851 -8.70407,-12.14559 -4.58031,-2.23858 -15.08002,0.31467 -15.28216,0.60837 z" style="opacity:.52424239;fill:#fc0000;fill-opacity:1;stroke:none"/><path id="path2992-1" d="m 469.94763,392.44977 c 1.66702,1.72091 -4.14667,4.86002 -6.04747,7.42414 -2.14217,2.88973 -3.84239,6.09351 -6.02421,8.9534 -3.14045,4.11642 -7.9092,10.8631 -10.13838,11.76773 -2.22919,0.90463 -2.61397,1.68695 -2.10577,-0.80988 0.0486,-4.08929 -0.46888,-10.39718 0.32961,-15.79817 0.85269,-5.60328 4.22913,-9.95851 8.70407,-12.14559 4.58031,-2.23858 15.08001,0.31467 15.28215,0.60837 z" style="opacity:.52424239;fill:#fc0000;fill-opacity:1;stroke:none"/></g></svg>