<svg xmlns="http://www.w3.org/2000/svg" xmlns:svg="http://www.w3.org/2000/svg" id="svg2" width="200" height="362" version="1.1"><metadata id="metadata7"/><g id="layer1" transform="translate(-395.71431,-323.50506)"><path id="path2992" d="m 531.54658,419.32035 c -1.66702,1.72091 -1.36035,8.07119 -0.96047,12.0961 0.48201,4.85145 1.48196,9.89493 4.00392,14.0673 1.93253,3.19721 5.88888,6.82248 8.11807,7.72711 2.22918,0.90463 3.49786,-6.77307 2.98965,-9.2699 -0.0486,-4.08929 0.0901,-8.62941 -0.70841,-14.0304 -0.85269,-5.60328 -2.91091,-8.13876 -5.79988,-10.75663 -1.88829,-1.7111 -6.11492,-2.96833 -7.64288,0.16642 z" style="opacity:.52424239;fill:#f57900;fill-opacity:1;stroke:none"/><path id="path2992-9" d="m 456.65005,420.35548 c 1.66702,1.72091 1.36035,8.07119 0.96047,12.0961 -0.48201,4.85145 -1.48196,9.89493 -4.00392,14.0673 -1.93253,3.19721 -5.88888,6.82248 -8.11807,7.72711 -2.22918,0.90463 -3.49786,-6.77307 -2.98965,-9.2699 0.0486,-4.08929 -0.0901,-8.62941 0.70841,-14.0304 0.85269,-5.60328 2.91091,-8.13876 5.79988,-10.75663 1.88829,-1.7111 6.11492,-2.96833 7.64288,0.16642 z" style="opacity:.52424239;fill:#f57900;fill-opacity:1;stroke:none"/></g></svg>