<svg xmlns="http://www.w3.org/2000/svg" xmlns:svg="http://www.w3.org/2000/svg" id="svg2" width="200" height="369.03" version="1.1"><metadata id="metadata7"/><g id="layer1" transform="translate(-54.28571,-335.71492)"><path style="opacity:.52424239;fill:#f57900;fill-opacity:1;stroke:none;display:inline" id="path2992-9-5" d="m 164.02666,497.12852 c -1.55631,1.52025 -1.56504,4.09871 -2.31396,6.16047 -1.07519,2.95998 -2.07652,5.94628 -3.12871,8.91451 -0.94527,2.6666 -2.81581,5.50344 -2.86083,7.99088 -0.12727,7.03248 5.37882,9.33869 8.71656,12.20652 3.33774,2.86783 6.9498,5.51311 9.32708,7.83922 2.37728,2.32611 6.07419,4.2694 9.30355,7.71468 2.2591,2.41015 4.83843,5.12955 5.17102,9.6188 0.46426,6.26654 -1.41009,15.04789 -0.92068,14.42208 3.2937,-4.21159 5.83554,-31.16875 4.06336,-40.6264 -0.62961,-3.36009 -0.57506,-9.6715 -2.31541,-14.10789 -2.41369,-6.1528 -6.45379,-11.68558 -10.94915,-16.53062 -2.83801,-3.05877 -7.71744,-6.10426 -9.89005,-7.67335 -2.55028,-0.64249 -2.72663,2.0481 -4.20274,4.07106 z"/><path style="opacity:.52424239;fill:#f57900;fill-opacity:1;stroke:none;display:inline" id="path2992-9-5-8" d="m 144.10239,497.59374 c 1.55631,1.52025 1.56504,4.09871 2.31396,6.16047 1.07519,2.95998 2.07652,5.94628 3.12871,8.91451 0.94527,2.6666 2.81581,5.50344 2.86083,7.99088 0.12727,7.03248 -5.37882,9.33869 -8.71656,12.20652 -3.33774,2.86783 -6.9498,5.51311 -9.32708,7.83922 -2.37728,2.32611 -6.07419,4.2694 -9.30355,7.71468 -2.2591,2.41015 -4.83843,5.12955 -5.17102,9.6188 -0.46426,6.26654 1.41009,15.04789 0.92068,14.42208 -3.2937,-4.21159 -5.83554,-31.16875 -4.06336,-40.6264 0.62961,-3.36009 0.57506,-9.6715 2.31541,-14.10789 2.41369,-6.1528 6.45379,-11.68558 10.94915,-16.53062 2.83801,-3.05877 7.71744,-6.10426 9.89005,-7.67335 2.55028,-0.64249 2.72663,2.0481 4.20274,4.07106 z"/></g></svg>