<svg xmlns="http://www.w3.org/2000/svg" xmlns:svg="http://www.w3.org/2000/svg" id="svg2" width="200" height="362" version="1.1"><metadata id="metadata7"/><g id="layer1" transform="translate(-395.71431,-323.50506)"><path style="opacity:.52424239;fill:#f57900;fill-opacity:1;stroke:none;display:inline" id="path2992-9-5" d="m 496.71569,400.4595 c -1.55631,1.52025 -1.10288,3.85607 -1.4211,5.80333 -0.3625,2.35132 -0.80068,4.79415 -0.093,7.12879 0.81079,11.41842 4.2154,10.19708 8.2193,10.89959 12.2635,2.15171 15.18392,0.30379 22.10382,-2.34424 3.55323,-1.35971 6.39202,-3.72964 9.25399,-6.68073 -3.82356,-5.55838 -5.1382,-9.45509 -8.75855,-13.3601 -3.74892,-4.04369 -7.62508,-9.52034 -13.10984,-10.08881 -5.37765,-0.55737 -13.05255,6.83988 -14.60926,7.04537 -0.71523,0.30386 -1.16231,0.98036 -1.58532,1.59676 z"/><path style="opacity:.52424239;fill:#f57900;fill-opacity:1;stroke:none;display:inline" id="path2992-9-5-6" d="m 492.21306,400.04042 c 1.55631,1.52025 1.10288,3.85607 1.4211,5.80333 0.3625,2.35132 0.80068,4.79415 0.093,7.12879 -0.81079,11.41842 -4.2154,10.19708 -8.2193,10.89959 -12.2635,2.15171 -15.18392,0.30379 -22.10382,-2.34424 -3.55323,-1.35971 -6.39202,-3.72964 -9.25399,-6.68073 3.82356,-5.55838 5.1382,-9.45509 8.75855,-13.3601 3.74892,-4.04369 7.62508,-9.52034 13.10984,-10.08881 5.37765,-0.55737 13.05255,6.83988 14.60926,7.04537 0.71523,0.30386 1.16231,0.98036 1.58532,1.59676 z"/></g></svg>