<svg xmlns="http://www.w3.org/2000/svg" xmlns:svg="http://www.w3.org/2000/svg" id="svg2" width="200" height="369" version="1.1"><metadata id="metadata7"/><g id="layer1" transform="translate(-395.71431,-316.50506)"><path style="opacity:.52424239;fill:#f57900;fill-opacity:1;stroke:none;display:inline" id="path2992-9-5" d="m 498.36277,434.58481 c -1.55631,1.52025 -0.13048,3.98753 -0.1711,5.9819 -0.052,2.55449 -0.0434,5.10996 -0.093,7.66451 -0.0875,4.50962 -0.22147,9.01828 -0.36082,13.5266 -0.16948,5.48319 0.15327,9.90598 -0.57803,16.44726 -0.95978,8.58488 -1.33969,19.65754 -0.5009,20.05568 1.58892,0.91978 5.5552,-3.03663 7.45027,-5.46433 1.5127,-1.93786 1.48305,-0.70542 2.78771,-6.82793 0.90275,-4.23642 1.43029,-9.25519 1.67209,-9.72652 0.60636,-1.09903 0.9424,-4.81204 1.38902,-9.40737 0.41377,-4.25735 0.28622,-7.00608 0.23245,-10.50979 -0.092,-5.99405 0.0362,-15.57164 -0.94915,-17.95919 -0.0822,-3.20813 -1.11029,-3.60426 -3.2829,-5.17335 -2.55028,-0.64249 -6.11949,-0.63047 -7.5956,1.39249 z"/><path style="opacity:.52424239;fill:#f57900;fill-opacity:1;stroke:none;display:inline" id="path2992-9-5-5" d="m 490.21813,434.48339 c 1.55631,1.52025 0.13048,3.98753 0.1711,5.9819 0.052,2.55449 0.0434,5.10996 0.093,7.66451 0.0875,4.50962 0.22147,9.01828 0.36082,13.5266 0.16948,5.48319 -0.15327,9.90598 0.57803,16.44726 0.95978,8.58488 1.33969,19.65754 0.5009,20.05568 -1.58892,0.91978 -5.5552,-3.03663 -7.45027,-5.46433 -1.5127,-1.93786 -1.48305,-0.70542 -2.78771,-6.82793 -0.90275,-4.23642 -1.43029,-9.25519 -1.67209,-9.72652 -0.60636,-1.09903 -0.9424,-4.81204 -1.38902,-9.40737 -0.41377,-4.25735 -0.28622,-7.00608 -0.23245,-10.50979 0.092,-5.99405 -0.0362,-15.57164 0.94915,-17.95919 0.0822,-3.20813 1.11029,-3.60426 3.2829,-5.17335 2.55028,-0.64249 6.11949,-0.63047 7.5956,1.39249 z"/></g></svg>