<svg xmlns="http://www.w3.org/2000/svg" xmlns:svg="http://www.w3.org/2000/svg" id="svg2" width="200" height="369" version="1.1"><metadata id="metadata7"/><g id="layer1" transform="translate(-395.71431,-316.50506)"><path id="path2992" d="m 520.2455,501.96347 c -1.66702,1.72091 -9.04566,17.0447 -10.99886,26.3645 -2.03299,9.70052 -5.11378,23.09955 -4.48703,30.75514 0.18671,2.28058 1.71644,5.12395 3.81899,6.48252 4.03864,2.60959 11.57099,-3.7841 13.04257,-6.16247 1.47158,-2.37837 2.99174,-8.38181 4.12606,-12.67917 1.95283,-7.39828 5.39338,-17.08945 4.5949,-22.49044 -3.88315,-2.57282 -5.35165,-3.5051 -6.55749,-6.96854 -1.58244,-4.54509 -3.337,-15.59524 -3.53914,-15.30154 z" style="opacity:.52424239;fill:#f57900;fill-opacity:1;stroke:none"/><path id="path2992-4" d="m 469.80904,501.37145 c 1.66702,1.72091 9.04566,17.0447 10.99886,26.3645 2.03299,9.70052 5.11378,23.09955 4.48703,30.75514 -0.18671,2.28058 -1.71644,5.12395 -3.81899,6.48252 -4.03864,2.60959 -11.57099,-3.7841 -13.04257,-6.16247 -1.47158,-2.37837 -2.99174,-8.38181 -4.12606,-12.67917 -1.95283,-7.39828 -5.39338,-17.08945 -4.5949,-22.49044 3.88315,-2.57282 5.35165,-3.5051 6.55749,-6.96854 1.58244,-4.54509 3.337,-15.59524 3.53914,-15.30154 z" style="opacity:.52424239;fill:#f57900;fill-opacity:1;stroke:none"/></g></svg>