<?xml version="1.0" encoding="UTF-8" standalone="no"?><!-- Created with Inkscape (http://www.inkscape.org/) -->

<svg xmlns:inkscape="http://www.inkscape.org/namespaces/inkscape"
    xmlns:sodipodi="http://sodipodi.sourceforge.net/DTD/sodipodi-0.dtd" height="127.99999" id="svg1"
    version="1.1" viewBox="0 0 33.866671 33.866665" width="128.00002"
    xmlns="http://www.w3.org/2000/svg"
    inkscape:export-filename="../Entwicklung/wger/flutter/flatpak/logo512.png"
    inkscape:export-xdpi="383.99997" inkscape:export-ydpi="383.99997"
    inkscape:version="1.3 (0e150ed, 2023-07-21)" sodipodi:docname="app-icon-grid.svg"
    xml:space="preserve"><sodipodi:namedview
     bordercolor="currentColor"
     borderopacity="0.25"
     id="namedview1"
     pagecolor="#ffffff"
     showgrid="false"
     inkscape:current-layer="layer1"
     inkscape:cx="68.059028"
     inkscape:cy="67.351921"
     inkscape:deskcolor="#d1d1d1"
     inkscape:document-units="px"
     inkscape:pagecheckerboard="0"
     inkscape:pageopacity="0.0"
     inkscape:showpageshadow="2"
     inkscape:window-height="1004"
     inkscape:window-maximized="0"
     inkscape:window-width="1728"
     inkscape:window-x="2731"
     inkscape:window-y="124"
     inkscape:zoom="2.8284271" />
    <defs id="defs1" />
    <g id="layer1" transform="translate(-32.279167,-138.64166)" inkscape:groupmode="layer"
        inkscape:label="Layer 1"><circle
       style="display:inline;opacity:0.2;fill:none;fill-opacity:1;stroke:currentColor;stroke-width:0.261937;stroke-linecap:butt;stroke-linejoin:miter;stroke-miterlimit:4;stroke-dasharray:none;stroke-dashoffset:0;stroke-opacity:1;marker:none;marker-start:none;marker-mid:none;marker-end:none;paint-order:normal;enable-background:new"
       cx="49.212509"
       cy="155.575"
       id="circle2892"
       r="15.743801" />
        <rect
            style="display:inline;opacity:0.2;fill:none;fill-opacity:1;stroke:currentColor;stroke-width:0.261937;stroke-linecap:butt;stroke-linejoin:miter;stroke-miterlimit:4;stroke-dasharray:none;stroke-dashoffset:0;stroke-opacity:1;marker:none;marker-start:none;marker-mid:none;marker-end:none;paint-order:normal;enable-background:new"
            height="27.254602" id="rect2896" rx="2.096508" ry="2.096508" width="27.254602"
            x="35.585205" y="141.94769" />
        <g id="layer1-2" transform="matrix(0.32793309,0,0,0.32793309,9.2292922,118.73149)"
            inkscape:label="Ebene 1"><path
         style="fill:#2a4c7d;fill-opacity:1;stroke:#2a4c7d;stroke-width:0.250912;stroke-opacity:1"
         d="m 119.24535,156.14635 c -11.30087,-5.25195 -20.477151,-10.71647 -32.026846,-17.17666 -5.209585,-2.91363 -5.521935,-3.33309 -7.088981,-5.078 -0.628356,-0.69967 -0.949626,-1.5731 -0.949626,-2.09903 0,-6.25575 0,-19.57957 0,-19.57957 V 92.633492 c 0,-0.529453 0.388777,-1.437466 0.837451,-2.006725 1.905684,-2.417852 2.039373,-2.508366 7.456347,-5.44992 8.609232,-4.891712 17.881585,-8.879857 26.458905,-13.781576 5.60244,-3.206248 7.07027,-3.64232 9.87937,-2.934989 1.78871,0.450395 36.96673,19.013221 38.40647,20.356984 0.51333,0.479114 1.15499,1.151574 1.58609,1.835763 0.38406,0.609518 0.86538,1.428234 0.86538,1.980463 v 19.456238 19.45623 c 0,0.57418 -0.41316,1.08395 -0.74242,1.55435 -0.99791,1.42567 -2.19608,2.73782 -3.65592,3.72685 -0.37773,0.25591 -1.56393,1.00043 -2.30115,1.44708 -9.40184,5.02554 -18.58109,10.08136 -27.11373,14.61154 -0.77197,0.40923 -1.74807,0.94024 -2.16915,1.18002 -3.90779,2.22537 -4.24475,2.35774 -6.22884,2.44686 -1.42618,0.064 -2.27404,-0.0326 -3.21335,-0.36631 z"
         id="path28-3"
         inkscape:export-xdpi="96"
         inkscape:export-ydpi="96"
         sodipodi:nodetypes="ccsscsaccssascsasccssc" />
            <path style="fill:#ffffff;stroke-width:2.34985"
                d="m 103.12614,95.844789 v 2.349812 h -5.87463 v 2.349919 h -5.874635 v 8.22445 h -2.34981 v 7.04954 h 2.34981 v 8.22446 h 5.874635 v 2.34981 h 5.87463 v 2.34991 h 8.22445 v -12.92418 h 21.14862 v 12.92418 h 8.22445 v -2.34991 h 5.87464 v -2.34981 h 5.87463 v -8.22446 h 2.34981 v -7.04954 h -2.34981 v -8.22445 H 146.5983 V 98.1946 h -5.87464 v -2.349812 h -8.22445 V 108.76897 H 111.35059 V 95.844789 Z m 2.34982,2.349812 h 3.52473 v 28.198179 h -3.52473 z m 29.37307,0 h 3.52481 v 28.198179 h -3.52481 z m -35.247707,2.349919 h 3.524817 v 23.49845 h -3.524817 z m 41.122337,0 h 3.52473 v 23.49845 h -3.52473 z m -46.996957,2.34982 h 3.524806 v 18.7988 h -3.524806 z m 52.871597,0 h 3.52472 v 18.7988 h -3.52472 z m -35.24771,8.22444 h 21.14862 v 2.34983 h -21.14862 z"
                fill="#000000" id="path981" inkscape:export-xdpi="96" inkscape:export-ydpi="96" /></g></g></svg>
