<svg xmlns="http://www.w3.org/2000/svg" xmlns:svg="http://www.w3.org/2000/svg" id="Layer_1" x="0" y="0" version="1.1" viewBox="0 0 512.002 512.002" xml:space="preserve" style="enable-background:new 0 0 512.002 512.002"><circle id="path2" cx="521.887" cy="45.192" r=".004" style="fill:#000;stroke:#000;stroke-width:.2"/><g id="Page-1" fill="none" fill-rule="evenodd" stroke="none" stroke-width="1" transform="matrix(29.995699,0,0,29.995699,241.90437,1.6845255)"><g id="Dribbble-Light-Preview" fill="#000" transform="translate(-345,-206)"><g id="icons" transform="translate(56,160)"><polygon id="plus_mini-[#1523]" points="298 49 298 51 294.625 51 294.625 54 292.375 54 292.375 51 289 51 289 49 292.375 49 292.375 46 294.625 46 294.625 49"/></g></g></g><g id="g3" transform="matrix(0.95088529,0,0,0.95088529,6.6189799,110.996)"><g id="g2"><path id="path1" d="M 494.434,315.678 H 463.697 C 455.367,216.327 377.063,136.575 278.357,126.001 283.158,110.85 271.813,95.459 256,95.459 c -15.83,0 -27.153,15.407 -22.357,30.542 -98.707,10.574 -177.01,90.327 -185.34,189.677 H 17.566 C 7.865,315.678 0,323.543 0,333.244 c 0,9.701 7.865,17.565 17.566,17.565 h 29.99 v 13.612 c 0,28.738 23.381,52.119 52.12,52.119 h 312.648 c 28.74,0 52.12,-23.381 52.12,-52.119 v -13.612 h 29.99 c 9.701,0 17.565,-7.865 17.565,-17.565 10e-4,-9.701 -7.864,-17.566 -17.565,-17.566 z M 112.028,273.83 c 15.615,-37.716 46.155,-68.42 83.79,-84.238 8.943,-3.761 19.24,0.444 22.999,9.387 3.759,8.944 -0.444,19.241 -9.387,23 -29.17,12.261 -52.841,36.057 -64.942,65.29 -3.706,8.953 -13.973,13.224 -22.949,9.51 -8.963,-3.712 -13.221,-13.987 -9.511,-22.949 z m 317.285,90.591 c 0,9.367 -7.621,16.988 -16.989,16.988 H 99.676 c -9.368,0 -16.989,-7.621 -16.989,-16.988 v -13.612 h 346.626 z"/></g></g></svg>